Patient4_TMGait_0pt5_02_left_21_GRF.mot
version=1
nRows=51
nColumns=19
inDegrees=no
endheader
time	F1x	F1y	F1z	M1x	M1y	M1z	F2x	F2y	F2z	M2x	M2y	M2z	EC1x	EC1y	EC1z	EC2x	EC2y	EC2z
26.56	11.7204	23.6568	-4.8913	-3.6969	3.4916	39.4243	-32.1501	776.8812	-39.7885	293.6671	50.7426	691.1605	-0.0592	0.0182	-0.0073	-0.0462	0.0165	0.9585
26.5734	8.1006	16.8632	-3.4783	-2.7806	2.5452	27.4452	-31.6385	787.7343	-43.9044	299.174	53.6544	696.9951	-0.0592	0.0182	-0.0073	-0.0462	0.0165	0.9585
26.5869	5.0007	11.1596	-2.2332	-2.0326	1.7045	17.3669	-31.3804	798.503	-47.4496	304.394	56.1194	702.4479	-0.0592	0.0182	-0.0073	-0.0462	0.0165	0.9585
26.6003	2.6189	6.861	-1.253	-1.4874	1.0357	9.7436	-31.3049	807.6146	-50.2391	308.6342	57.9697	706.3603	-0.0592	0.0182	-0.0073	-0.0462	0.0165	0.9585
26.6137	0.96121	3.9263	-0.54885	-1.1299	0.54617	4.5143	-31.2666	813.724	-52.2812	311.3707	59.167	707.7188	-0.0592	0.0182	-0.0073	-0.0462	0.0165	0.9585
26.6271	-0.087991	2.1315	-0.087013	-0.92083	0.21109	1.3089	-31.1164	816.0004	-53.6896	312.3259	59.7575	705.9138	-0.0592	0.0182	-0.0073	-0.0462	0.0165	0.9585
26.6406	-0.66132	1.1674	0.18881	-0.80789	-0.0049719	-0.39257	-30.7063	814.1886	-54.5942	311.4746	59.8047	700.7539	-0.0592	0.0182	-0.0073	-0.0462	0.0165	0.9585
26.654	-0.92223	0.72361	0.33754	-0.73532	-0.14732	-1.0955	-29.9462	808.5882	-55.117	309.0126	59.3879	692.4783	-0.0592	0.0182	-0.0073	-0.0462	0.0165	0.9585
26.6674	-0.9966	0.49669	0.40599	-0.64531	-0.24707	-1.2909	-28.7724	799.9127	-55.3256	305.2947	58.553	681.6353	-0.0592	0.0182	-0.0073	-0.0462	0.0165	0.9585
26.6809	-0.99157	0.23032	0.43884	-0.48385	-0.33558	-1.3691	-27.1708	789.094	-55.249	300.7479	57.3362	668.9498	-0.0592	0.0182	-0.0073	-0.0462	0.0165	0.9585
26.6943	-0.96699	-0.28606	0.46073	-0.20293	-0.425	-1.6311	-25.1674	777.1012	-54.8677	295.7989	55.7496	655.1822	-0.0592	0.0182	-0.0073	-0.0462	0.0165	0.9585
26.7077	-0.93839	-1.2152	0.49336	0.23603	-0.5227	-2.2933	-22.7886	764.8139	-54.1577	290.8229	53.8003	641.0203	-0.0592	0.0182	-0.0073	-0.0462	0.0165	0.9585
26.7211	-0.91003	-2.6272	0.53596	0.84496	-0.61717	-3.4447	-20.0471	752.983	-53.0894	286.1239	51.4784	627.0709	-0.0592	0.0182	-0.0073	-0.0462	0.0165	0.9585
26.7346	-0.83019	-4.4895	0.58543	1.5988	-0.68527	-5.0698	-16.9135	742.1645	-51.6514	281.9156	48.7684	613.7737	-0.0592	0.0182	-0.0073	-0.0462	0.0165	0.9585
26.748	-0.64061	-6.5706	0.61031	2.4063	-0.67655	-6.9386	-13.3348	732.7562	-49.8694	278.337	45.6636	601.4516	-0.0592	0.0182	-0.0073	-0.0462	0.0165	0.9585
26.7614	-0.24385	-8.3993	0.56938	3.0901	-0.5162	-8.616	-9.2301	725.0511	-47.8238	275.4756	42.1843	590.3455	-0.0592	0.0182	-0.0073	-0.0462	0.0165	0.9585
26.7749	0.46371	-9.1836	0.39972	3.3543	-0.1014	-9.3646	-4.5551	719.2646	-45.6523	273.3813	38.4041	580.6539	-0.0592	0.0182	-0.0073	-0.0462	0.0165	0.9585
26.7883	1.589	-7.7562	0.026732	2.7615	0.68444	-8.0821	0.66085	715.5168	-43.5187	272.0627	34.4412	572.5201	-0.0592	0.0182	-0.0073	-0.0462	0.0165	0.9585
26.8017	3.2363	-2.5651	-0.64197	0.72762	1.9676	-3.2927	6.2907	713.7757	-41.594	271.4692	30.4617	565.9915	-0.0592	0.0182	-0.0073	-0.0462	0.0165	0.9585
26.8151	5.4285	8.2793	-1.6938	-3.456	3.8323	6.8278	12.0848	713.7281	-40.0062	271.446	26.6478	560.9346	-0.0592	0.0182	-0.0073	-0.0462	0.0165	0.9585
26.8286	8.0766	26.7895	-3.1881	-10.5405	6.2911	24.2053	17.7245	714.6251	-38.8261	271.6821	23.1738	556.8848	-0.0592	0.0182	-0.0073	-0.0462	0.0165	0.9585
26.842	10.8689	54.6902	-5.1131	-21.1633	9.2037	50.537	22.8481	715.2616	-38.0333	271.7035	20.1642	553.035	-0.0592	0.0182	-0.0073	-0.0462	0.0165	0.9585
26.8554	13.1998	92.7197	-7.3376	-35.5805	12.2029	86.6188	27.1013	713.98	-37.5304	270.8788	17.6879	548.2226	-0.0592	0.0182	-0.0073	-0.0462	0.0165	0.9585
26.8689	14.0577	139.6025	-9.5341	-53.2736	14.5838	131.3675	30.175	708.8165	-37.1355	268.4769	15.731	541.029	-0.0592	0.0182	-0.0073	-0.0462	0.0165	0.9585
26.8823	11.9544	190.6703	-11.095	-72.428	15.2009	180.5218	31.8466	697.8176	-36.6398	263.7865	14.2325	530.0124	-0.0592	0.0182	-0.0073	-0.0462	0.0165	0.9585
26.8957	5.6675	237.076	-10.9625	-89.6505	12.5968	225.8832	32.0587	679.5718	-35.8719	256.3166	13.1019	514.0847	-0.0592	0.0182	-0.0073	-0.0462	0.0165	0.9585
26.9091	-3.1514	270.685	-8.1365	-101.8398	6.4404	259.7777	30.9603	653.9331	-34.8037	246.0556	12.2814	493.0501	-0.0592	0.0182	-0.0073	-0.0462	0.0165	0.9585
26.9226	-12.2986	290.4229	-3.5909	-108.6369	-1.4781	280.9062	28.9361	622.2404	-33.5412	233.533	11.7108	467.7833	-0.0592	0.0182	-0.0073	-0.0462	0.0165	0.9585
26.936	-20.379	300.4939	1.8863	-111.6852	-9.8709	292.9451	26.5534	586.5008	-32.2861	219.5222	11.3349	439.6542	-0.0592	0.0182	-0.0073	-0.0462	0.0165	0.9585
26.9494	-26.882	306.232	7.2205	-113.0835	-17.5131	300.7719	24.3808	548.7386	-30.9979	204.8103	10.9209	410.0771	-0.0592	0.0182	-0.0073	-0.0462	0.0165	0.9585
26.9629	-31.9932	311.769	11.9998	-114.4615	-24.084	308.1767	22.8361	510.6769	-29.4462	190.0801	10.1726	380.2742	-0.0592	0.0182	-0.0073	-0.0462	0.0165	0.9585
26.9763	-35.9024	319.8569	15.6337	-116.9108	-29.0886	317.5739	22.0938	473.6957	-27.3483	175.8769	8.8385	351.2891	-0.0592	0.0182	-0.0073	-0.0462	0.0165	0.9585
26.9897	-38.592	332.2299	18.3604	-121.0812	-32.7454	330.4457	22.1598	438.7035	-24.6006	162.5563	6.8549	323.822	-0.0592	0.0182	-0.0073	-0.0462	0.0165	0.9585
27.0031	-40.038	349.7598	20.362	-127.2798	-35.2129	347.4681	22.8823	406.1928	-21.3109	150.2908	4.3369	298.3012	-0.0592	0.0182	-0.0073	-0.0462	0.0165	0.9585
27.0166	-40.2852	372.4351	22.2078	-135.4511	-37.0399	368.6116	24.0651	376.1594	-17.7914	139.0522	1.5571	274.7574	-0.0592	0.0182	-0.0073	-0.0462	0.0165	0.9585
27.03	-39.4155	399.4396	24.1669	-145.2567	-38.5083	393.0388	25.441	348.1612	-14.3825	128.6424	-1.1767	252.9161	-0.0592	0.0182	-0.0073	-0.0462	0.0165	0.9585
27.0434	-37.6897	429.4603	26.6724	-156.168	-40.1126	419.5617	26.7035	321.4003	-11.3868	118.7355	-3.562	232.2373	-0.0592	0.0182	-0.0073	-0.0462	0.0165	0.9585
27.0569	-35.3954	461.1535	29.8039	-167.6666	-42.0221	446.9329	27.5594	294.9568	-8.9664	108.9697	-5.3919	212.0667	-0.0592	0.0182	-0.0073	-0.0462	0.0165	0.9585
27.0703	-32.8361	493.5146	33.6976	-179.3662	-44.4695	474.279	27.694	268.0614	-7.1726	99.0426	-6.5225	191.8846	-0.0592	0.0182	-0.0073	-0.0462	0.0165	0.9585
27.0837	-30.2251	526.0545	38.0691	-191.0978	-47.2674	501.1707	26.9167	240.273	-5.9526	88.7822	-6.9189	171.3592	-0.0592	0.0182	-0.0073	-0.0462	0.0165	0.9585
27.0971	-27.6368	558.6355	42.7169	-202.8293	-50.2693	527.4796	25.1216	211.6334	-5.2298	78.1965	-6.5931	150.5038	-0.0592	0.0182	-0.0073	-0.0462	0.0165	0.9585
27.1106	-25.1332	591.2386	47.3302	-214.5765	-53.2163	553.2034	22.3488	182.6484	-4.9009	67.4716	-5.6322	129.6329	-0.0592	0.0182	-0.0073	-0.0462	0.0165	0.9585
27.124	-22.7248	623.7348	51.8393	-226.3158	-56.0516	578.2128	18.7514	154.1641	-4.8575	56.9236	-4.1714	109.2855	-0.0592	0.0182	-0.0073	-0.0462	0.0165	0.9585
27.1374	-20.4246	655.9139	56.1118	-237.9879	-58.658	602.3302	14.556	127.1801	-4.973	46.9231	-2.3906	90.1294	-0.0592	0.0182	-0.0073	-0.0462	0.0165	0.9585
27.1509	-18.1809	687.3323	60.0784	-249.4494	-60.9555	625.1799	10.0849	102.5234	-5.1221	37.784	-0.49899	72.6744	-0.0592	0.0182	-0.0073	-0.0462	0.0165	0.9585
27.1643	-15.9033	717.3451	63.6125	-260.4765	-62.801	646.2269	5.6134	80.7426	-5.1849	29.7134	1.3057	57.3001	-0.0592	0.0182	-0.0073	-0.0462	0.0165	0.9585
27.1777	-13.5298	745.1692	66.636	-270.7841	-64.0989	664.8535	1.4985	61.997	-5.0793	22.776	2.8361	44.0923	-0.0592	0.0182	-0.0073	-0.0462	0.0165	0.9585
27.1911	-11.0066	769.9278	69.1007	-280.0449	-64.7915	680.3976	-1.9175	46.1731	-4.7405	16.9308	3.9214	32.9718	-0.0592	0.0182	-0.0073	-0.0462	0.0165	0.9585
27.2046	-8.3776	790.7334	70.9684	-287.9169	-64.8598	692.2594	-4.3426	33.0164	-4.1491	12.0836	4.4398	23.7578	-0.0592	0.0182	-0.0073	-0.0462	0.0165	0.9585
27.218	-5.7121	806.7774	72.2572	-294.0736	-64.3536	699.9409	-5.5627	22.2709	-3.3457	8.1379	4.3484	16.239	-0.0592	0.0182	-0.0073	-0.0462	0.0165	0.9585
27.2314	-3.1554	817.3848	72.958	-298.2345	-63.3224	703.1044	-5.6267	13.8322	-2.433	5.0467	3.7405	10.3443	-0.0592	0.0182	-0.0073	-0.0462	0.0165	0.9585
